<svg width="145" height="51" viewBox="0 0 145 51" fill="none" xmlns="http://www.w3.org/2000/svg">
<g clip-path="url(#clip0)">
<path d="M32.6348 1.35755C30.0893 0.479395 27.352 0 24.5 0C13.8209 0 4.73917 6.69944 1.3847 16.0443C0.488983 18.5399 0 21.2235 0 24.0196C0 34.4893 6.83343 43.393 16.3652 46.6817C18.9107 47.5598 21.648 48.0392 24.5 48.0392C35.1791 48.0392 44.2608 41.3398 47.6153 31.9949C48.511 29.4993 49 26.8157 49 24.0196C49 13.5499 42.1669 4.64625 32.6348 1.35755ZM16.3652 24.0196C16.3652 19.6149 20.0072 16.0443 24.5 16.0443C28.9928 16.0443 32.6348 19.6149 32.6348 24.0196C32.6348 28.4243 28.9928 31.9949 24.5 31.9949C20.0072 31.9949 16.3652 28.4243 16.3652 24.0196Z" fill="#FFEE99"/>
<path d="M24.5 16.0443H1.3847C0.488983 18.5399 0 21.2235 0 24.0196C0 34.4893 6.83343 43.3929 16.3652 46.6816V24.0196C16.3652 19.6149 20.0072 16.0443 24.5 16.0443Z" fill="#FF0075"/>
<path d="M32.6348 24.0196V1.35755C30.0894 0.479395 27.3521 0 24.5001 0C13.8209 0 4.73924 6.69944 1.38477 16.0443H24.5001C28.9929 16.0443 32.6348 19.6149 32.6348 24.0196Z" fill="#006EFF"/>
<path d="M16.3652 24.0197V46.6817C18.9107 47.5599 21.648 48.0393 24.5 48.0393C35.1791 48.0393 44.2608 41.3398 47.6153 31.9949H24.5C20.0072 31.9949 16.3652 28.4244 16.3652 24.0197Z" fill="#FFC700"/>
<path d="M32.6348 24.0196V1.35755C30.0893 0.479395 27.352 0 24.5 0V16.0443C28.9928 16.0443 32.6348 19.6149 32.6348 24.0196Z" fill="#005ADC"/>
<path d="M24.5 31.9949V48.0392C35.1791 48.0392 44.2608 41.3398 47.6153 31.9949H24.5Z" fill="#FFB800"/>
<path d="M32.6348 1.35754V24.0196C32.6348 28.4243 28.9928 31.9949 24.5 31.9949H47.6153C48.511 29.4993 49 26.8157 49 24.0196C49 13.5499 42.1669 4.64624 32.6348 1.35754Z" fill="#060635"/>
</g>
<path d="M39.28 13C39.06 13 38.875 12.925 38.725 12.775C38.575 12.625 38.5 12.44 38.5 12.22V2.065C38.5 1.835 38.575 1.65 38.725 1.51C38.875 1.36 39.06 1.285 39.28 1.285C39.58 1.285 39.81 1.425 39.97 1.705L44.425 10.63L48.76 1.705C48.92 1.425 49.15 1.285 49.45 1.285C49.67 1.285 49.855 1.36 50.005 1.51C50.155 1.65 50.23 1.835 50.23 2.065V12.22C50.23 12.44 50.15 12.625 49.99 12.775C49.84 12.925 49.66 13 49.45 13C49.23 13 49.045 12.925 48.895 12.775C48.745 12.625 48.67 12.44 48.67 12.22V4.765L45.04 12.16C44.87 12.42 44.645 12.55 44.365 12.55C44.035 12.55 43.795 12.395 43.645 12.085L40.06 4.9V12.22C40.06 12.44 39.985 12.625 39.835 12.775C39.685 12.925 39.5 13 39.28 13ZM56.5363 13.075C55.8463 13.075 55.2263 12.93 54.6763 12.64C54.1363 12.34 53.7063 11.905 53.3863 11.335C53.0763 10.765 52.9213 10.065 52.9213 9.235V5.545C52.9213 5.325 52.9913 5.145 53.1313 5.005C53.2813 4.855 53.4663 4.78 53.6863 4.78C53.9063 4.78 54.0863 4.855 54.2263 5.005C54.3763 5.145 54.4513 5.325 54.4513 5.545V9.235C54.4513 10.085 54.6763 10.71 55.1263 11.11C55.5863 11.5 56.1563 11.695 56.8363 11.695C57.2663 11.695 57.6463 11.61 57.9763 11.44C58.3163 11.27 58.5863 11.04 58.7863 10.75C58.9863 10.46 59.0863 10.135 59.0863 9.775V5.545C59.0863 5.315 59.1563 5.13 59.2963 4.99C59.4463 4.85 59.6313 4.78 59.8513 4.78C60.0813 4.78 60.2663 4.85 60.4063 4.99C60.5463 5.13 60.6163 5.315 60.6163 5.545V12.235C60.6163 12.455 60.5463 12.64 60.4063 12.79C60.2663 12.93 60.0813 13 59.8513 13C59.6313 13 59.4463 12.93 59.2963 12.79C59.1563 12.64 59.0863 12.455 59.0863 12.235V12.07C58.7763 12.38 58.4013 12.625 57.9613 12.805C57.5213 12.985 57.0463 13.075 56.5363 13.075ZM64.0759 16.51C63.8559 16.51 63.6709 16.435 63.5209 16.285C63.3809 16.145 63.3109 15.965 63.3109 15.745V8.905C63.3209 8.115 63.5059 7.405 63.8659 6.775C64.2259 6.145 64.7159 5.65 65.3359 5.29C65.9559 4.92 66.6559 4.735 67.4359 4.735C68.2259 4.735 68.9309 4.92 69.5509 5.29C70.1709 5.65 70.6609 6.145 71.0209 6.775C71.3909 7.405 71.5759 8.115 71.5759 8.905C71.5759 9.695 71.4059 10.405 71.0659 11.035C70.7359 11.655 70.2809 12.15 69.7009 12.52C69.1209 12.88 68.4659 13.06 67.7359 13.06C67.1459 13.06 66.6009 12.94 66.1009 12.7C65.6109 12.45 65.1909 12.115 64.8409 11.695V15.745C64.8409 15.965 64.7709 16.145 64.6309 16.285C64.4909 16.435 64.3059 16.51 64.0759 16.51ZM67.4359 11.71C67.9459 11.71 68.4009 11.59 68.8009 11.35C69.2009 11.1 69.5159 10.765 69.7459 10.345C69.9859 9.915 70.1059 9.435 70.1059 8.905C70.1059 8.365 69.9859 7.885 69.7459 7.465C69.5159 7.035 69.2009 6.7 68.8009 6.46C68.4009 6.21 67.9459 6.085 67.4359 6.085C66.9359 6.085 66.4809 6.21 66.0709 6.46C65.6709 6.7 65.3559 7.035 65.1259 7.465C64.8959 7.885 64.7809 8.365 64.7809 8.905C64.7809 9.435 64.8959 9.915 65.1259 10.345C65.3559 10.765 65.6709 11.1 66.0709 11.35C66.4809 11.59 66.9359 11.71 67.4359 11.71ZM39.28 30C39.06 30 38.875 29.925 38.725 29.775C38.575 29.625 38.5 29.44 38.5 29.22V19.065C38.5 18.835 38.575 18.65 38.725 18.51C38.875 18.36 39.06 18.285 39.28 18.285H42.28C43.03 18.285 43.695 18.45 44.275 18.78C44.855 19.11 45.305 19.57 45.625 20.16C45.955 20.74 46.12 21.41 46.12 22.17C46.12 22.9 45.955 23.55 45.625 24.12C45.305 24.69 44.855 25.135 44.275 25.455C43.695 25.775 43.03 25.935 42.28 25.935H40.06V29.22C40.06 29.44 39.985 29.625 39.835 29.775C39.695 29.925 39.51 30 39.28 30ZM40.06 24.495H42.28C42.96 24.495 43.52 24.28 43.96 23.85C44.4 23.41 44.62 22.85 44.62 22.17C44.62 21.69 44.52 21.27 44.32 20.91C44.12 20.54 43.845 20.25 43.495 20.04C43.145 19.83 42.74 19.725 42.28 19.725H40.06V24.495ZM50.8227 30.06C50.0927 30.06 49.4377 29.88 48.8577 29.52C48.2777 29.15 47.8177 28.655 47.4777 28.035C47.1477 27.405 46.9827 26.695 46.9827 25.905C46.9827 25.115 47.1627 24.405 47.5227 23.775C47.8927 23.145 48.3877 22.65 49.0077 22.29C49.6377 21.92 50.3427 21.735 51.1227 21.735C51.9027 21.735 52.6027 21.92 53.2227 22.29C53.8427 22.65 54.3327 23.145 54.6927 23.775C55.0627 24.405 55.2477 25.115 55.2477 25.905V29.25C55.2477 29.47 55.1727 29.655 55.0227 29.805C54.8827 29.945 54.7027 30.015 54.4827 30.015C54.2627 30.015 54.0777 29.945 53.9277 29.805C53.7877 29.655 53.7177 29.47 53.7177 29.25V28.695C53.3677 29.115 52.9427 29.45 52.4427 29.7C51.9527 29.94 51.4127 30.06 50.8227 30.06ZM51.1227 28.71C51.6327 28.71 52.0877 28.59 52.4877 28.35C52.8877 28.1 53.2027 27.765 53.4327 27.345C53.6627 26.915 53.7777 26.435 53.7777 25.905C53.7777 25.365 53.6627 24.885 53.4327 24.465C53.2027 24.035 52.8877 23.7 52.4877 23.46C52.0877 23.21 51.6327 23.085 51.1227 23.085C50.6227 23.085 50.1677 23.21 49.7577 23.46C49.3577 23.7 49.0377 24.035 48.7977 24.465C48.5677 24.885 48.4527 25.365 48.4527 25.905C48.4527 26.435 48.5677 26.915 48.7977 27.345C49.0377 27.765 49.3577 28.1 49.7577 28.35C50.1677 28.59 50.6227 28.71 51.1227 28.71ZM61.2448 30.06C60.4448 30.06 59.7298 29.88 59.0998 29.52C58.4798 29.15 57.9898 28.655 57.6298 28.035C57.2798 27.405 57.1048 26.695 57.1048 25.905C57.1048 25.095 57.2798 24.375 57.6298 23.745C57.9798 23.115 58.4598 22.625 59.0698 22.275C59.6798 21.915 60.3798 21.735 61.1698 21.735C62.3498 21.735 63.3298 22.185 64.1098 23.085C64.2498 23.245 64.2998 23.41 64.2598 23.58C64.2198 23.75 64.1098 23.9 63.9298 24.03C63.7898 24.13 63.6348 24.165 63.4648 24.135C63.2948 24.095 63.1398 24.005 62.9998 23.865C62.5098 23.345 61.8998 23.085 61.1698 23.085C60.3998 23.085 59.7748 23.345 59.2948 23.865C58.8148 24.375 58.5748 25.055 58.5748 25.905C58.5748 26.445 58.6848 26.925 58.9048 27.345C59.1348 27.765 59.4498 28.1 59.8498 28.35C60.2498 28.59 60.7148 28.71 61.2448 28.71C61.9248 28.71 62.4748 28.535 62.8948 28.185C63.0548 28.055 63.2198 27.985 63.3898 27.975C63.5598 27.955 63.7098 28 63.8398 28.11C64.0098 28.25 64.1048 28.41 64.1248 28.59C64.1448 28.76 64.0848 28.915 63.9448 29.055C63.2248 29.725 62.3248 30.06 61.2448 30.06ZM66.5636 30C66.3636 30 66.2036 29.94 66.0836 29.82C65.9736 29.69 65.9186 29.535 65.9186 29.355C65.9186 29.175 65.9886 28.995 66.1286 28.815L68.4536 25.905L65.9786 22.98C65.8486 22.82 65.7786 22.65 65.7686 22.47C65.7586 22.28 65.8086 22.12 65.9186 21.99C66.0286 21.86 66.1936 21.795 66.4136 21.795C66.6536 21.795 66.8436 21.88 66.9836 22.05L69.4436 24.99L71.6486 22.05C71.7286 21.95 71.8136 21.885 71.9036 21.855C71.9936 21.815 72.0936 21.795 72.2036 21.795C72.4236 21.795 72.5886 21.865 72.6986 22.005C72.8086 22.135 72.8586 22.295 72.8486 22.485C72.8486 22.675 72.7786 22.86 72.6386 23.04L70.3736 25.995L72.7586 28.845C72.9086 29.025 72.9786 29.205 72.9686 29.385C72.9686 29.555 72.9036 29.7 72.7736 29.82C72.6536 29.94 72.4936 30 72.2936 30C72.1936 30 72.0986 29.985 72.0086 29.955C71.9186 29.925 71.8336 29.86 71.7536 29.76L69.3686 26.91L67.1036 29.76C66.9536 29.92 66.7736 30 66.5636 30ZM77.8561 30.06C77.0461 30.06 76.3311 29.885 75.7111 29.535C75.0911 29.175 74.6011 28.685 74.2411 28.065C73.8911 27.435 73.7161 26.715 73.7161 25.905C73.7161 25.085 73.8911 24.365 74.2411 23.745C74.6011 23.115 75.0911 22.625 75.7111 22.275C76.3311 21.915 77.0461 21.735 77.8561 21.735C78.6561 21.735 79.3661 21.915 79.9861 22.275C80.6061 22.625 81.0911 23.115 81.4411 23.745C81.8011 24.365 81.9811 25.085 81.9811 25.905C81.9811 26.715 81.8061 27.435 81.4561 28.065C81.1061 28.685 80.6211 29.175 80.0011 29.535C79.3811 29.885 78.6661 30.06 77.8561 30.06ZM77.8561 28.71C78.3761 28.71 78.8361 28.59 79.2361 28.35C79.6361 28.11 79.9461 27.78 80.1661 27.36C80.3961 26.94 80.5111 26.455 80.5111 25.905C80.5111 25.355 80.3961 24.87 80.1661 24.45C79.9461 24.02 79.6361 23.685 79.2361 23.445C78.8361 23.205 78.3761 23.085 77.8561 23.085C77.3361 23.085 76.8761 23.205 76.4761 23.445C76.0761 23.685 75.7611 24.02 75.5311 24.45C75.3011 24.87 75.1861 25.355 75.1861 25.905C75.1861 26.455 75.3011 26.94 75.5311 27.36C75.7611 27.78 76.0761 28.11 76.4761 28.35C76.8761 28.59 77.3361 28.71 77.8561 28.71ZM87.6782 30.06C86.9282 30.06 86.2632 29.885 85.6832 29.535C85.1132 29.175 84.6632 28.685 84.3332 28.065C84.0032 27.435 83.8382 26.715 83.8382 25.905C83.8382 25.085 84.0132 24.365 84.3632 23.745C84.7232 23.115 85.2132 22.625 85.8332 22.275C86.4532 21.915 87.1682 21.735 87.9782 21.735C88.7782 21.735 89.4882 21.915 90.1082 22.275C90.7282 22.625 91.2132 23.115 91.5632 23.745C91.9232 24.365 92.1032 25.085 92.1032 25.905V29.145C92.1032 29.935 91.9282 30.65 91.5782 31.29C91.2282 31.94 90.7382 32.455 90.1082 32.835C89.4882 33.215 88.7682 33.405 87.9482 33.405C87.2382 33.405 86.5732 33.265 85.9532 32.985C85.3332 32.705 84.8082 32.295 84.3782 31.755C84.2482 31.585 84.1982 31.41 84.2282 31.23C84.2682 31.05 84.3682 30.905 84.5282 30.795C84.7082 30.675 84.8932 30.635 85.0832 30.675C85.2832 30.715 85.4432 30.815 85.5632 30.975C85.8332 31.315 86.1732 31.58 86.5832 31.77C86.9932 31.96 87.4582 32.055 87.9782 32.055C88.4582 32.055 88.8982 31.94 89.2982 31.71C89.7082 31.48 90.0332 31.14 90.2732 30.69C90.5132 30.24 90.6332 29.69 90.6332 29.04V28.305C90.3232 28.845 89.9132 29.275 89.4032 29.595C88.8932 29.905 88.3182 30.06 87.6782 30.06ZM87.9782 28.71C88.4982 28.71 88.9582 28.59 89.3582 28.35C89.7582 28.11 90.0682 27.78 90.2882 27.36C90.5182 26.94 90.6332 26.455 90.6332 25.905C90.6332 25.355 90.5182 24.87 90.2882 24.45C90.0682 24.02 89.7582 23.685 89.3582 23.445C88.9582 23.205 88.4982 23.085 87.9782 23.085C87.4582 23.085 86.9982 23.205 86.5982 23.445C86.1982 23.685 85.8832 24.02 85.6532 24.45C85.4232 24.87 85.3082 25.355 85.3082 25.905C85.3082 26.455 85.4232 26.94 85.6532 27.36C85.8832 27.78 86.1982 28.11 86.5982 28.35C86.9982 28.59 87.4582 28.71 87.9782 28.71ZM95.1153 30C94.8953 30 94.7153 29.93 94.5753 29.79C94.4453 29.64 94.3803 29.455 94.3803 29.235V22.56C94.3803 22.33 94.4453 22.145 94.5753 22.005C94.7153 21.865 94.8953 21.795 95.1153 21.795C95.3453 21.795 95.5303 21.865 95.6703 22.005C95.8103 22.145 95.8803 22.33 95.8803 22.56V25.065H100.515V22.56C100.515 22.33 100.585 22.145 100.725 22.005C100.875 21.865 101.06 21.795 101.28 21.795C101.51 21.795 101.69 21.865 101.82 22.005C101.95 22.145 102.015 22.33 102.015 22.56V29.235C102.015 29.455 101.95 29.64 101.82 29.79C101.69 29.93 101.51 30 101.28 30C101.06 30 100.875 29.93 100.725 29.79C100.585 29.64 100.515 29.455 100.515 29.235V26.415H95.8803V29.235C95.8803 29.455 95.8103 29.64 95.6703 29.79C95.5303 29.93 95.3453 30 95.1153 30ZM108.157 30.15C107.487 30.15 106.892 30.01 106.372 29.73C105.852 29.44 105.447 29.045 105.157 28.545C104.867 28.045 104.722 27.475 104.722 26.835V22.545C104.742 22.325 104.822 22.145 104.962 22.005C105.102 21.865 105.277 21.795 105.487 21.795C105.717 21.795 105.902 21.865 106.042 22.005C106.182 22.145 106.252 22.33 106.252 22.56V24.24H108.307C108.937 24.24 109.492 24.35 109.972 24.57C110.462 24.79 110.842 25.11 111.112 25.53C111.392 25.95 111.532 26.465 111.532 27.075C111.532 27.725 111.387 28.28 111.097 28.74C110.817 29.2 110.422 29.55 109.912 29.79C109.402 30.03 108.817 30.15 108.157 30.15ZM113.602 30C113.382 30 113.197 29.93 113.047 29.79C112.907 29.64 112.837 29.455 112.837 29.235V22.56C112.837 22.33 112.907 22.145 113.047 22.005C113.197 21.865 113.382 21.795 113.602 21.795C113.832 21.795 114.017 21.865 114.157 22.005C114.297 22.145 114.367 22.33 114.367 22.56V29.235C114.367 29.455 114.297 29.64 114.157 29.79C114.017 29.93 113.832 30 113.602 30ZM108.157 28.725C108.717 28.725 109.172 28.59 109.522 28.32C109.882 28.04 110.062 27.625 110.062 27.075C110.062 26.545 109.897 26.155 109.567 25.905C109.237 25.655 108.817 25.53 108.307 25.53H106.252V26.805C106.252 27.365 106.427 27.825 106.777 28.185C107.137 28.545 107.597 28.725 108.157 28.725ZM116.647 30C116.447 30 116.287 29.94 116.167 29.82C116.057 29.69 116.002 29.535 116.002 29.355C116.002 29.175 116.072 28.995 116.212 28.815L118.537 25.905L116.062 22.98C115.932 22.82 115.862 22.65 115.852 22.47C115.842 22.28 115.892 22.12 116.002 21.99C116.112 21.86 116.277 21.795 116.497 21.795C116.737 21.795 116.927 21.88 117.067 22.05L119.527 24.99L121.732 22.05C121.812 21.95 121.897 21.885 121.987 21.855C122.077 21.815 122.177 21.795 122.287 21.795C122.507 21.795 122.672 21.865 122.782 22.005C122.892 22.135 122.942 22.295 122.932 22.485C122.932 22.675 122.862 22.86 122.722 23.04L120.457 25.995L122.842 28.845C122.992 29.025 123.062 29.205 123.052 29.385C123.052 29.555 122.987 29.7 122.857 29.82C122.737 29.94 122.577 30 122.377 30C122.277 30 122.182 29.985 122.092 29.955C122.002 29.925 121.917 29.86 121.837 29.76L119.452 26.91L117.187 29.76C117.037 29.92 116.857 30 116.647 30ZM39.28 47C39.06 47 38.875 46.925 38.725 46.775C38.575 46.625 38.5 46.44 38.5 46.22V36.065C38.5 35.835 38.575 35.65 38.725 35.51C38.875 35.36 39.06 35.285 39.28 35.285C39.58 35.285 39.81 35.425 39.97 35.705L44.425 44.63L48.76 35.705C48.92 35.425 49.15 35.285 49.45 35.285C49.67 35.285 49.855 35.36 50.005 35.51C50.155 35.65 50.23 35.835 50.23 36.065V46.22C50.23 46.44 50.15 46.625 49.99 46.775C49.84 46.925 49.66 47 49.45 47C49.23 47 49.045 46.925 48.895 46.775C48.745 46.625 48.67 46.44 48.67 46.22V38.765L45.04 46.16C44.87 46.42 44.645 46.55 44.365 46.55C44.035 46.55 43.795 46.395 43.645 46.085L40.06 38.9V46.22C40.06 46.44 39.985 46.625 39.835 46.775C39.685 46.925 39.5 47 39.28 47ZM56.5063 47.06C55.7763 47.06 55.1213 46.88 54.5413 46.52C53.9613 46.15 53.5013 45.655 53.1613 45.035C52.8313 44.405 52.6663 43.695 52.6663 42.905C52.6663 42.115 52.8463 41.405 53.2063 40.775C53.5763 40.145 54.0713 39.65 54.6913 39.29C55.3213 38.92 56.0263 38.735 56.8063 38.735C57.5863 38.735 58.2863 38.92 58.9063 39.29C59.5263 39.65 60.0163 40.145 60.3763 40.775C60.7463 41.405 60.9313 42.115 60.9313 42.905V46.25C60.9313 46.47 60.8563 46.655 60.7063 46.805C60.5663 46.945 60.3863 47.015 60.1663 47.015C59.9463 47.015 59.7613 46.945 59.6113 46.805C59.4713 46.655 59.4013 46.47 59.4013 46.25V45.695C59.0513 46.115 58.6263 46.45 58.1263 46.7C57.6363 46.94 57.0963 47.06 56.5063 47.06ZM56.8063 45.71C57.3163 45.71 57.7713 45.59 58.1713 45.35C58.5713 45.1 58.8863 44.765 59.1163 44.345C59.3463 43.915 59.4613 43.435 59.4613 42.905C59.4613 42.365 59.3463 41.885 59.1163 41.465C58.8863 41.035 58.5713 40.7 58.1713 40.46C57.7713 40.21 57.3163 40.085 56.8063 40.085C56.3063 40.085 55.8513 40.21 55.4413 40.46C55.0413 40.7 54.7213 41.035 54.4813 41.465C54.2513 41.885 54.1363 42.365 54.1363 42.905C54.1363 43.435 54.2513 43.915 54.4813 44.345C54.7213 44.765 55.0413 45.1 55.4413 45.35C55.8513 45.59 56.3063 45.71 56.8063 45.71ZM63.9734 47.015C63.7534 47.015 63.5684 46.945 63.4184 46.805C63.2784 46.655 63.2084 46.47 63.2084 46.25V39.575C63.2084 39.345 63.2784 39.16 63.4184 39.02C63.5684 38.88 63.7534 38.81 63.9734 38.81C64.2034 38.81 64.3884 38.88 64.5284 39.02C64.6684 39.16 64.7384 39.335 64.7384 39.545C64.9984 39.285 65.3084 39.085 65.6684 38.945C66.0284 38.795 66.4184 38.72 66.8384 38.72C67.8884 38.72 68.6784 39.115 69.2084 39.905C69.4984 39.535 69.8684 39.245 70.3184 39.035C70.7684 38.825 71.2734 38.72 71.8334 38.72C72.6934 38.72 73.3934 39 73.9334 39.56C74.4734 40.12 74.7434 40.92 74.7434 41.96V46.25C74.7434 46.47 74.6734 46.655 74.5334 46.805C74.3934 46.945 74.2084 47.015 73.9784 47.015C73.7584 47.015 73.5734 46.945 73.4234 46.805C73.2834 46.655 73.2134 46.47 73.2134 46.25V41.96C73.2134 41.33 73.0584 40.865 72.7484 40.565C72.4384 40.255 72.0334 40.1 71.5334 40.1C71.0134 40.1 70.5834 40.28 70.2434 40.64C69.9134 41 69.7484 41.46 69.7484 42.02V46.25C69.7484 46.47 69.6784 46.655 69.5384 46.805C69.3984 46.945 69.2134 47.015 68.9834 47.015C68.7634 47.015 68.5784 46.945 68.4284 46.805C68.2884 46.655 68.2184 46.47 68.2184 46.25V41.96C68.2184 41.33 68.0634 40.865 67.7534 40.565C67.4434 40.255 67.0384 40.1 66.5384 40.1C66.0184 40.1 65.5884 40.28 65.2484 40.64C64.9084 41 64.7384 41.46 64.7384 42.02V46.25C64.7384 46.47 64.6684 46.655 64.5284 46.805C64.3884 46.945 64.2034 47.015 63.9734 47.015ZM81.1405 47.06C80.3105 47.06 79.5705 46.885 78.9205 46.535C78.2805 46.175 77.7755 45.685 77.4055 45.065C77.0455 44.435 76.8655 43.715 76.8655 42.905C76.8655 42.085 77.0355 41.365 77.3755 40.745C77.7255 40.115 78.2055 39.625 78.8155 39.275C79.4255 38.915 80.1255 38.735 80.9155 38.735C81.6955 38.735 82.3655 38.91 82.9255 39.26C83.4855 39.6 83.9105 40.075 84.2005 40.685C84.5005 41.285 84.6505 41.98 84.6505 42.77C84.6505 42.96 84.5855 43.12 84.4555 43.25C84.3255 43.37 84.1605 43.43 83.9605 43.43H78.2605C78.3705 44.12 78.6855 44.685 79.2055 45.125C79.7355 45.555 80.3805 45.77 81.1405 45.77C81.4505 45.77 81.7655 45.715 82.0855 45.605C82.4155 45.485 82.6805 45.35 82.8805 45.2C83.0305 45.09 83.1905 45.035 83.3605 45.035C83.5405 45.025 83.6955 45.075 83.8255 45.185C83.9955 45.335 84.0855 45.5 84.0955 45.68C84.1055 45.86 84.0255 46.015 83.8555 46.145C83.5155 46.415 83.0905 46.635 82.5805 46.805C82.0805 46.975 81.6005 47.06 81.1405 47.06ZM80.9155 40.025C80.1755 40.025 79.5805 40.23 79.1305 40.64C78.6805 41.05 78.3955 41.58 78.2755 42.23H83.2705C83.1805 41.59 82.9355 41.065 82.5355 40.655C82.1355 40.235 81.5955 40.025 80.9155 40.025ZM87.367 50.51C87.147 50.51 86.962 50.435 86.812 50.285C86.672 50.145 86.602 49.965 86.602 49.745V42.905C86.612 42.115 86.797 41.405 87.157 40.775C87.517 40.145 88.007 39.65 88.627 39.29C89.247 38.92 89.947 38.735 90.727 38.735C91.517 38.735 92.222 38.92 92.842 39.29C93.462 39.65 93.952 40.145 94.312 40.775C94.682 41.405 94.867 42.115 94.867 42.905C94.867 43.695 94.697 44.405 94.357 45.035C94.027 45.655 93.572 46.15 92.992 46.52C92.412 46.88 91.757 47.06 91.027 47.06C90.437 47.06 89.892 46.94 89.392 46.7C88.902 46.45 88.482 46.115 88.132 45.695V49.745C88.132 49.965 88.062 50.145 87.922 50.285C87.782 50.435 87.597 50.51 87.367 50.51ZM90.727 45.71C91.237 45.71 91.692 45.59 92.092 45.35C92.492 45.1 92.807 44.765 93.037 44.345C93.277 43.915 93.397 43.435 93.397 42.905C93.397 42.365 93.277 41.885 93.037 41.465C92.807 41.035 92.492 40.7 92.092 40.46C91.692 40.21 91.237 40.085 90.727 40.085C90.227 40.085 89.772 40.21 89.362 40.46C88.962 40.7 88.647 41.035 88.417 41.465C88.187 41.885 88.072 42.365 88.072 42.905C88.072 43.435 88.187 43.915 88.417 44.345C88.647 44.765 88.962 45.1 89.362 45.35C89.772 45.59 90.227 45.71 90.727 45.71ZM100.599 47.075C99.9088 47.075 99.2888 46.93 98.7388 46.64C98.1988 46.34 97.7688 45.905 97.4488 45.335C97.1388 44.765 96.9838 44.065 96.9838 43.235V39.545C96.9838 39.325 97.0538 39.145 97.1938 39.005C97.3438 38.855 97.5288 38.78 97.7488 38.78C97.9688 38.78 98.1488 38.855 98.2888 39.005C98.4388 39.145 98.5138 39.325 98.5138 39.545V43.235C98.5138 44.085 98.7388 44.71 99.1888 45.11C99.6488 45.5 100.219 45.695 100.899 45.695C101.329 45.695 101.709 45.61 102.039 45.44C102.379 45.27 102.649 45.04 102.849 44.75C103.049 44.46 103.149 44.135 103.149 43.775V39.545C103.149 39.315 103.219 39.13 103.359 38.99C103.509 38.85 103.694 38.78 103.914 38.78C104.144 38.78 104.329 38.85 104.469 38.99C104.609 39.13 104.679 39.315 104.679 39.545V46.235C104.679 46.455 104.609 46.64 104.469 46.79C104.329 46.93 104.144 47 103.914 47C103.694 47 103.509 46.93 103.359 46.79C103.219 46.64 103.149 46.455 103.149 46.235V46.07C102.839 46.38 102.464 46.625 102.024 46.805C101.584 46.985 101.109 47.075 100.599 47.075ZM110.793 47.06C110.063 47.06 109.408 46.88 108.828 46.52C108.248 46.15 107.788 45.655 107.448 45.035C107.118 44.405 106.953 43.695 106.953 42.905C106.953 42.115 107.133 41.405 107.493 40.775C107.863 40.145 108.358 39.65 108.978 39.29C109.608 38.92 110.313 38.735 111.093 38.735C111.873 38.735 112.573 38.92 113.193 39.29C113.813 39.65 114.303 40.145 114.663 40.775C115.033 41.405 115.218 42.115 115.218 42.905V46.25C115.218 46.47 115.143 46.655 114.993 46.805C114.853 46.945 114.673 47.015 114.453 47.015C114.233 47.015 114.048 46.945 113.898 46.805C113.758 46.655 113.688 46.47 113.688 46.25V45.695C113.338 46.115 112.913 46.45 112.413 46.7C111.923 46.94 111.383 47.06 110.793 47.06ZM111.093 45.71C111.603 45.71 112.058 45.59 112.458 45.35C112.858 45.1 113.173 44.765 113.403 44.345C113.633 43.915 113.748 43.435 113.748 42.905C113.748 42.365 113.633 41.885 113.403 41.465C113.173 41.035 112.858 40.7 112.458 40.46C112.058 40.21 111.603 40.085 111.093 40.085C110.593 40.085 110.138 40.21 109.728 40.46C109.328 40.7 109.008 41.035 108.768 41.465C108.538 41.885 108.423 42.365 108.423 42.905C108.423 43.435 108.538 43.915 108.768 44.345C109.008 44.765 109.328 45.1 109.728 45.35C110.138 45.59 110.593 45.71 111.093 45.71ZM120.571 38.81C120.881 38.81 121.111 38.975 121.261 39.305L124.351 46.01C124.441 46.21 124.451 46.39 124.381 46.55C124.311 46.7 124.191 46.815 124.021 46.895C123.581 47.095 123.256 46.995 123.046 46.595L120.601 41.045L118.081 46.595C117.991 46.785 117.856 46.91 117.676 46.97C117.506 47.02 117.316 46.995 117.106 46.895C116.916 46.805 116.781 46.685 116.701 46.535C116.631 46.385 116.646 46.21 116.746 46.01L119.851 39.305C120.001 38.975 120.241 38.81 120.571 38.81ZM130.019 47.06C129.209 47.06 128.494 46.885 127.874 46.535C127.254 46.175 126.764 45.685 126.404 45.065C126.054 44.435 125.879 43.715 125.879 42.905C125.879 42.085 126.054 41.365 126.404 40.745C126.764 40.115 127.254 39.625 127.874 39.275C128.494 38.915 129.209 38.735 130.019 38.735C130.819 38.735 131.529 38.915 132.149 39.275C132.769 39.625 133.254 40.115 133.604 40.745C133.964 41.365 134.144 42.085 134.144 42.905C134.144 43.715 133.969 44.435 133.619 45.065C133.269 45.685 132.784 46.175 132.164 46.535C131.544 46.885 130.829 47.06 130.019 47.06ZM130.019 45.71C130.539 45.71 130.999 45.59 131.399 45.35C131.799 45.11 132.109 44.78 132.329 44.36C132.559 43.94 132.674 43.455 132.674 42.905C132.674 42.355 132.559 41.87 132.329 41.45C132.109 41.02 131.799 40.685 131.399 40.445C130.999 40.205 130.539 40.085 130.019 40.085C129.499 40.085 129.039 40.205 128.639 40.445C128.239 40.685 127.924 41.02 127.694 41.45C127.464 41.87 127.349 42.355 127.349 42.905C127.349 43.455 127.464 43.94 127.694 44.36C127.924 44.78 128.239 45.11 128.639 45.35C129.039 45.59 129.499 45.71 130.019 45.71ZM137.186 47C136.966 47 136.781 46.93 136.631 46.79C136.491 46.64 136.421 46.455 136.421 46.235V39.545C136.441 39.325 136.521 39.145 136.661 39.005C136.801 38.865 136.976 38.795 137.186 38.795H137.201H140.951C141.421 38.795 141.836 38.89 142.196 39.08C142.566 39.26 142.856 39.515 143.066 39.845C143.276 40.165 143.381 40.535 143.381 40.955C143.381 41.345 143.276 41.695 143.066 42.005C142.866 42.305 142.596 42.535 142.256 42.695C142.696 42.885 143.041 43.15 143.291 43.49C143.551 43.83 143.681 44.225 143.681 44.675C143.681 45.125 143.561 45.525 143.321 45.875C143.081 46.225 142.746 46.5 142.316 46.7C141.896 46.9 141.411 47 140.861 47H137.186ZM140.951 40.205H137.951V42.14H141.101C141.351 42.14 141.556 42.045 141.716 41.855C141.876 41.655 141.956 41.405 141.956 41.105C141.956 40.845 141.861 40.63 141.671 40.46C141.481 40.29 141.241 40.205 140.951 40.205ZM137.951 45.575H140.861C141.261 45.575 141.586 45.48 141.836 45.29C142.086 45.09 142.211 44.835 142.211 44.525C142.211 44.195 142.086 43.925 141.836 43.715C141.586 43.505 141.261 43.4 140.861 43.4H137.951V45.575Z" fill="white"/>
<defs>
<clipPath id="clip0">
<rect width="49" height="48.0392" fill="white"/>
</clipPath>
</defs>
</svg>
